<?xml version="1.0" ?><svg data-name="Layer 38" id="Layer_38" viewBox="0 0 50 50" xmlns="http://www.w3.org/2000/svg">
  <defs>
    <style>
      .cls-1 {
        fill: white;
      }
    </style>
  </defs>
  <title />
  <path class="cls-1" d="M46.7,18.9A5.4,5.4,0,0,0,42.6,17H30V8.9a5.4,5.4,0,0,0-2.6-4.6l-3.2-2a2,2,0,0,0-2.9.8L11.7,23H4a2,2,0,0,0-2,2V46a2,2,0,0,0,2,2H39.6A5.5,5.5,0,0,0,45,43.4l3-20.1A5.4,5.4,0,0,0,46.7,18.9ZM6,27h5V44H6V27Zm38-4.3L41,42.8A1.4,1.4,0,0,1,39.6,44H15V25.5L24,6.9l1.3,0.8A1.4,1.4,0,0,1,26,8.9V19a2,2,0,0,0,2,2H42.6A1.4,1.4,0,0,1,44,22.7Z" />
</svg>